<mxfile host="app.diagrams.net" modified="2023-05-15T13:14:58.266Z" agent="Mozilla/5.0 (Macintosh; Intel Mac OS X 10_15_7) AppleWebKit/537.36 (KHTML, like Gecko) Chrome/113.0.0.0 Safari/537.36" etag="FcCevAIugIBZhjhWvR8w" version="21.2.9" type="github">
  <diagram name="第 1 页" id="YT_AQdwXI0vLmQ7dQdLO">
    <mxGraphModel dx="1050" dy="582" grid="1" gridSize="10" guides="1" tooltips="1" connect="1" arrows="1" fold="1" page="1" pageScale="1" pageWidth="827" pageHeight="1169" math="0" shadow="0">
      <root>
        <mxCell id="0" />
        <mxCell id="1" parent="0" />
        <mxCell id="qPqg_LSnU1_NvGWCKPPR-4" style="edgeStyle=orthogonalEdgeStyle;hachureGap=4;orthogonalLoop=1;jettySize=auto;html=1;exitX=1;exitY=0.5;exitDx=0;exitDy=0;entryX=0;entryY=0.5;entryDx=0;entryDy=0;fontFamily=Architects Daughter;fontSource=https%3A%2F%2Ffonts.googleapis.com%2Fcss%3Ffamily%3DArchitects%2BDaughter;fontSize=16;curved=1;" edge="1" parent="1" source="qPqg_LSnU1_NvGWCKPPR-1" target="qPqg_LSnU1_NvGWCKPPR-2">
          <mxGeometry relative="1" as="geometry" />
        </mxCell>
        <mxCell id="qPqg_LSnU1_NvGWCKPPR-5" style="edgeStyle=orthogonalEdgeStyle;hachureGap=4;orthogonalLoop=1;jettySize=auto;html=1;exitX=1;exitY=0.5;exitDx=0;exitDy=0;entryX=0;entryY=0.5;entryDx=0;entryDy=0;fontFamily=Architects Daughter;fontSource=https%3A%2F%2Ffonts.googleapis.com%2Fcss%3Ffamily%3DArchitects%2BDaughter;fontSize=16;curved=1;" edge="1" parent="1" source="qPqg_LSnU1_NvGWCKPPR-2" target="qPqg_LSnU1_NvGWCKPPR-3">
          <mxGeometry relative="1" as="geometry" />
        </mxCell>
        <mxCell id="qPqg_LSnU1_NvGWCKPPR-2" value="&lt;span style=&quot;font-size: 14px;&quot;&gt;facade --&amp;gt; integration&lt;br&gt;&amp;nbsp; &amp;nbsp; &amp;nbsp; &amp;nbsp; &amp;nbsp; &amp;nbsp; &amp;nbsp; req&lt;br&gt;&lt;/span&gt;" style="rounded=1;whiteSpace=wrap;html=1;shadow=0;glass=0;fillColor=#ffe6cc;strokeColor=#d79b00;" vertex="1" parent="1">
          <mxGeometry x="320" y="230" width="170" height="100" as="geometry" />
        </mxCell>
        <mxCell id="qPqg_LSnU1_NvGWCKPPR-3" value="&lt;span style=&quot;font-size: 14px;&quot;&gt;facade --&amp;gt; integration&lt;br&gt;&amp;nbsp; &amp;nbsp; &amp;nbsp; &amp;nbsp; &amp;nbsp; &amp;nbsp; &amp;nbsp;req&lt;br&gt;&lt;/span&gt;" style="rounded=1;whiteSpace=wrap;html=1;shadow=0;glass=0;fillColor=#f8cecc;strokeColor=#b85450;" vertex="1" parent="1">
          <mxGeometry x="540" y="230" width="170" height="100" as="geometry" />
        </mxCell>
        <mxCell id="qPqg_LSnU1_NvGWCKPPR-6" value="&lt;p&gt;&lt;font face=&quot;Helvetica&quot;&gt;loan-product&lt;/font&gt;&lt;/p&gt;" style="text;html=1;align=center;verticalAlign=middle;resizable=0;points=[];autosize=1;strokeColor=none;fillColor=none;fontSize=20;fontFamily=Architects Daughter;" vertex="1" parent="1">
          <mxGeometry x="105" y="153" width="130" height="80" as="geometry" />
        </mxCell>
        <mxCell id="qPqg_LSnU1_NvGWCKPPR-7" value="&lt;p&gt;&lt;font face=&quot;Helvetica&quot;&gt;channel&lt;/font&gt;&lt;/p&gt;" style="text;html=1;align=center;verticalAlign=middle;resizable=0;points=[];autosize=1;strokeColor=none;fillColor=none;fontSize=20;fontFamily=Architects Daughter;" vertex="1" parent="1">
          <mxGeometry x="365" y="150" width="90" height="80" as="geometry" />
        </mxCell>
        <mxCell id="qPqg_LSnU1_NvGWCKPPR-8" value="&lt;p&gt;&lt;font face=&quot;Helvetica&quot;&gt;repayment&lt;/font&gt;&lt;/p&gt;" style="text;html=1;align=center;verticalAlign=middle;resizable=0;points=[];autosize=1;strokeColor=none;fillColor=none;fontSize=20;fontFamily=Architects Daughter;" vertex="1" parent="1">
          <mxGeometry x="570" y="150" width="120" height="80" as="geometry" />
        </mxCell>
        <mxCell id="qPqg_LSnU1_NvGWCKPPR-9" value="" style="swimlane;startSize=0;hachureGap=4;fontFamily=Architects Daughter;fontSource=https%3A%2F%2Ffonts.googleapis.com%2Fcss%3Ffamily%3DArchitects%2BDaughter;fontSize=20;swimlaneLine=1;" vertex="1" parent="1">
          <mxGeometry x="67.5" y="160" width="215" height="217" as="geometry" />
        </mxCell>
        <mxCell id="qPqg_LSnU1_NvGWCKPPR-1" value="&lt;span style=&quot;font-size: 14px;&quot;&gt;facade --&amp;gt; integration&lt;br&gt;&amp;nbsp; &amp;nbsp; &amp;nbsp; &amp;nbsp; &amp;nbsp; &amp;nbsp; &amp;nbsp; req&lt;br&gt;&lt;/span&gt;" style="rounded=1;whiteSpace=wrap;html=1;shadow=0;glass=0;fillColor=#fff2cc;strokeColor=#d6b656;" vertex="1" parent="qPqg_LSnU1_NvGWCKPPR-9">
          <mxGeometry x="32.5" y="70" width="170" height="100" as="geometry" />
        </mxCell>
        <mxCell id="qPqg_LSnU1_NvGWCKPPR-10" value="" style="swimlane;startSize=0;hachureGap=4;fontFamily=Architects Daughter;fontSource=https%3A%2F%2Ffonts.googleapis.com%2Fcss%3Ffamily%3DArchitects%2BDaughter;fontSize=20;swimlaneLine=1;" vertex="1" parent="1">
          <mxGeometry x="297.5" y="160" width="215" height="217" as="geometry">
            <mxRectangle x="297.5" y="160" width="50" height="40" as="alternateBounds" />
          </mxGeometry>
        </mxCell>
        <mxCell id="qPqg_LSnU1_NvGWCKPPR-11" value="" style="swimlane;startSize=0;hachureGap=4;fontFamily=Architects Daughter;fontSource=https%3A%2F%2Ffonts.googleapis.com%2Fcss%3Ffamily%3DArchitects%2BDaughter;fontSize=20;swimlaneLine=1;" vertex="1" parent="1">
          <mxGeometry x="522.5" y="160" width="215" height="217" as="geometry" />
        </mxCell>
        <mxCell id="qPqg_LSnU1_NvGWCKPPR-13" value="&lt;p&gt;&lt;font style=&quot;font-size: 16px;&quot; face=&quot;Helvetica&quot;&gt;facade对外提供接口类&lt;/font&gt;&lt;/p&gt;" style="text;html=1;strokeColor=none;fillColor=none;align=center;verticalAlign=middle;whiteSpace=wrap;rounded=0;fontSize=20;fontFamily=Architects Daughter;" vertex="1" parent="1">
          <mxGeometry x="270" y="400" width="220" height="20" as="geometry" />
        </mxCell>
        <mxCell id="qPqg_LSnU1_NvGWCKPPR-14" value="&lt;p&gt;&lt;font style=&quot;font-size: 16px;&quot; face=&quot;Helvetica&quot;&gt;integration调用下游接口&lt;/font&gt;&lt;/p&gt;" style="text;html=1;strokeColor=none;fillColor=none;align=center;verticalAlign=middle;whiteSpace=wrap;rounded=0;fontSize=20;fontFamily=Architects Daughter;" vertex="1" parent="1">
          <mxGeometry x="270" y="430" width="220" height="20" as="geometry" />
        </mxCell>
        <mxCell id="qPqg_LSnU1_NvGWCKPPR-15" value="&lt;p&gt;&lt;font face=&quot;Helvetica&quot;&gt;&lt;span style=&quot;font-size: 16px;&quot;&gt;facade提供req类给上游调用，一旦改变，需要改变pom包的version版本号&lt;/span&gt;&lt;/font&gt;&lt;/p&gt;" style="text;html=1;strokeColor=none;fillColor=none;align=center;verticalAlign=middle;whiteSpace=wrap;rounded=0;fontSize=20;fontFamily=Architects Daughter;" vertex="1" parent="1">
          <mxGeometry x="140" y="460" width="540" height="20" as="geometry" />
        </mxCell>
        <mxCell id="qPqg_LSnU1_NvGWCKPPR-16" value="&lt;p&gt;&lt;font style=&quot;font-size: 16px;&quot; face=&quot;Helvetica&quot;&gt;integration项目里面一般包含facade，facade一般不包含三方类&lt;/font&gt;&lt;/p&gt;" style="text;html=1;strokeColor=none;fillColor=none;align=center;verticalAlign=middle;whiteSpace=wrap;rounded=0;fontSize=20;fontFamily=Architects Daughter;" vertex="1" parent="1">
          <mxGeometry x="180" y="490" width="450" height="20" as="geometry" />
        </mxCell>
      </root>
    </mxGraphModel>
  </diagram>
</mxfile>
